<?xml version="1.0" encoding="UTF-8"?>
<svg width="100" height="100" viewBox="0 0 100 100" xmlns="http://www.w3.org/2000/svg">
    <circle cx="50" cy="50" r="45" fill="none" stroke="#3CB815" stroke-width="2"/>
    <path d="M50 5C25.2 5 5 25.2 5 50s20.2 45 45 45 45-20.2 45-45S74.8 5 50 5zm0 80c-19.3 0-35-15.7-35-35s15.7-35 35-35 35 15.7 35 35-15.7 35-35 35z" fill="#3CB815"/>
    <path d="M65 35c-2.8 0-5-2.2-5-5s2.2-5 5-5 5 2.2 5 5-2.2 5-5 5zm-30 40c-2.8 0-5-2.2-5-5s2.2-5 5-5 5 2.2 5 5-2.2 5-5 5z" fill="#3CB815"/>
</svg> 